<?xml version="1.0" standalone="no"?>
<!DOCTYPE svg PUBLIC "-//W3C//DTD SVG 20010904//EN"
 "http://www.w3.org/TR/2001/REC-SVG-20010904/DTD/svg10.dtd">
<svg version="1.0" xmlns="http://www.w3.org/2000/svg"
 width="292.000000pt" height="323.000000pt" viewBox="0 0 292.000000 323.000000"
 preserveAspectRatio="xMidYMid meet">

<g transform="translate(0.000000,323.000000) scale(0.100000,-0.100000)"
fill="#000000" stroke="none">
<path d="M2495 3198 c-8 -13 -37 -57 -64 -98 -28 -43 -92 -117 -148 -170 -113
-109 -284 -258 -328 -286 -26 -16 -23 -11 18 36 53 62 92 116 126 175 23 39
23 39 -20 -10 -74 -87 -298 -309 -305 -303 -3 4 11 34 31 66 56 91 42 111 -22
30 -41 -53 -91 -94 -255 -211 -284 -202 -327 -255 -315 -386 4 -36 9 -77 13
-89 7 -24 7 -24 -24 -8 -17 9 -33 24 -37 34 -3 11 8 75 25 143 27 107 30 139
28 234 l-3 110 39 53 c21 29 36 55 33 59 -3 3 -40 -9 -81 -26 -89 -37 -167
-54 -213 -45 -29 5 -32 9 -27 31 l7 25 -44 -23 c-24 -12 -59 -34 -79 -49 -19
-15 -56 -35 -82 -44 -60 -22 -88 -56 -88 -108 0 -43 33 -113 58 -123 21 -8 23
-3 12 35 -15 53 -4 58 99 41 l90 -14 -32 -41 c-18 -22 -58 -70 -89 -105 -32
-36 -70 -89 -85 -118 -15 -29 -30 -53 -33 -53 -3 0 -23 18 -44 40 -51 54 -88
55 -137 4 -37 -39 -100 -73 -137 -74 -59 0 -123 -71 -105 -116 6 -16 7 -16 18
0 11 14 13 13 18 -14 5 -24 12 -30 32 -30 23 0 24 2 15 21 -7 11 -9 28 -5 36
5 14 7 14 20 -3 12 -16 17 -17 32 -6 10 7 33 19 51 27 18 9 37 27 42 40 9 24
83 85 103 85 6 0 7 -21 3 -55 -4 -37 -2 -63 6 -78 7 -12 11 -25 10 -29 -3 -12
5 -9 22 8 10 9 16 33 16 60 0 48 11 56 33 23 11 -15 13 -37 10 -78 -7 -71 13
-121 81 -204 57 -69 68 -61 -153 -106 -236 -49 -261 -49 -398 -6 -17 5 -32 -3
-68 -36 -26 -24 -53 -56 -61 -71 -11 -20 -22 -28 -42 -28 -16 0 -33 -5 -40
-12 -9 -9 -12 -162 -12 -625 l0 -613 28 -11 c52 -20 174 -39 254 -39 121 0
264 25 532 91 216 54 249 60 321 57 65 -3 90 -10 134 -33 62 -34 107 -84 123
-138 l11 -37 63 0 62 0 12 36 c31 93 130 154 264 162 102 6 178 -8 411 -75
236 -68 314 -83 423 -83 90 1 217 20 231 36 5 5 14 212 20 459 6 248 14 520
17 605 l6 156 -59 39 c-32 21 -71 41 -88 45 -25 5 -31 11 -33 38 -2 18 -9 35
-16 38 -7 3 -50 -1 -95 -9 -44 -8 -81 -12 -81 -9 0 2 11 17 25 34 31 37 58
128 52 176 -2 21 -21 100 -42 177 -66 245 -60 268 80 342 l80 42 -58 1 c-70 0
-110 -17 -161 -69 -48 -49 -58 -104 -28 -153 41 -67 74 -197 80 -310 5 -121
-3 -154 -50 -193 -67 -56 -154 -38 -243 51 -57 57 -95 127 -141 259 -30 89
-62 138 -102 159 -35 18 -120 35 -221 45 -56 6 -90 15 -113 30 l-33 23 180 -5
180 -4 -145 17 c-80 9 -138 19 -130 22 8 4 76 9 150 12 155 6 331 39 466 87
114 40 164 66 164 84 0 19 20 21 -220 -20 -130 -22 -255 -37 -340 -41 l-135
-5 147 60 c140 57 252 110 245 118 -2 1 -57 -17 -123 -41 -192 -70 -227 -73
-95 -6 166 83 402 233 522 331 89 72 199 181 199 196 0 30 -43 8 -155 -77
-174 -134 -311 -211 -614 -350 -188 -85 -199 -86 -83 -4 222 157 558 421 549
431 -3 2 -78 -48 -167 -112 -89 -64 -164 -114 -167 -111 -3 3 73 88 168 189
176 186 244 280 256 355 7 38 -9 43 -32 10z m-334 -1530 c36 -73 99 -162 137
-192 l37 -29 -46 6 c-90 12 -206 55 -233 88 -14 17 -26 36 -26 43 0 11 96 126
106 126 2 0 13 -19 25 -42z m-442 -45 c17 -26 28 -49 26 -51 -2 -2 -52 -15
-112 -28 -59 -14 -117 -27 -128 -30 -11 -3 -38 2 -60 12 l-40 17 130 63 c72
34 136 63 142 63 7 1 26 -20 42 -46z m-798 -133 c27 -15 24 -47 -11 -135 -54
-137 -75 -170 -118 -189 -32 -14 -46 -16 -77 -7 -27 7 -62 7 -114 0 -103 -14
-121 -22 -121 -56 0 -18 3 -24 8 -15 7 10 15 8 35 -8 19 -16 27 -18 27 -8 0
12 35 13 203 10 178 -4 207 -2 229 12 23 15 26 15 31 1 8 -20 23 -19 31 2 10
25 -18 41 -85 49 -48 5 -59 10 -59 25 0 27 50 81 71 76 10 -3 20 2 23 10 5 11
16 14 39 10 25 -3 40 2 69 25 25 19 44 27 57 23 11 -3 21 0 24 9 3 8 42 42 87
76 86 65 100 68 138 27 21 -22 21 -33 28 -480 l7 -457 -49 22 c-45 21 -63 23
-224 23 -201 -1 -237 -8 -518 -99 -92 -31 -207 -62 -257 -71 -49 -9 -100 -18
-113 -21 l-22 -4 0 536 0 536 33 -9 c17 -4 82 -7 142 -7 101 1 123 5 280 52
195 58 181 55 206 42z m849 -57 c17 -26 30 -53 30 -60 0 -21 -108 -181 -130
-193 -10 -5 -41 -10 -69 -10 l-51 0 0 104 c0 57 3 112 6 121 10 24 118 76 177
84 4 1 21 -20 37 -46z m605 -72 c75 -9 195 -2 238 15 16 6 17 -12 17 -252 0
-143 3 -363 7 -490 l6 -231 -33 -11 c-63 -23 -124 -14 -301 43 -216 69 -263
81 -368 94 -98 12 -240 0 -332 -29 l-59 -18 0 297 0 296 78 -3 c50 -3 101 2
140 12 45 11 86 14 159 9 115 -7 112 -9 136 91 10 38 31 90 47 116 17 26 30
58 30 72 0 13 2 27 6 30 3 3 37 -3 77 -13 40 -10 108 -22 152 -28z m-375 -14
c0 -7 -19 -46 -42 -87 l-43 -75 -45 0 c-34 0 -46 4 -48 17 -3 17 21 41 113
117 53 43 65 49 65 28z"/>
</g>
</svg>
